<?xml version="1.0" encoding="utf-8"?>
<!-- Generator: Adobe Illustrator 24.2.1, SVG Export Plug-In . SVG Version: 6.00 Build 0)  -->
<svg version="1.1" id="Capa_1" xmlns="http://www.w3.org/2000/svg" xmlns:xlink="http://www.w3.org/1999/xlink" x="0px" y="0px"
	 viewBox="0 0 97.8 97.8" style="enable-background:new 0 0 97.8 97.8;" xml:space="preserve">
<style type="text/css">
	.st0{fill:#866E4B;}
</style>
<g>
	<g>
		<path class="st0" d="M39.2,38.6c0-4.7-3.2-4.7-3.2-4.7h-1.7H22.9v10h12.3C37.3,43.9,39.2,43.3,39.2,38.6z"/>
		<path class="st0" d="M36,50.9H22.9v12h12.5c1.9-0.1,5.3-0.6,5.3-5.8C40.8,50.8,36,50.9,36,50.9z"/>
		<path class="st0" d="M69.5,43.9c-7,0-7.9,6.9-7.9,6.9h14.8C76.4,50.9,76.5,43.9,69.5,43.9z"/>
		<path class="st0" d="M48.9-0.7C21.5-0.7-0.7,21.5-0.7,48.9s22.2,49.6,49.6,49.6s49.6-22.2,49.6-49.6S76.3-0.7,48.9-0.7z
			 M59.7,28.6h18.6v5.5H59.7V28.6z M50.3,57.6C50.3,71.3,36,70.9,36,70.9H22.9h-0.4h-9.9v-45h9.9h0.4H36c7.1,0,12.7,3.9,12.7,12
			c0,8.1-6.9,8.6-6.9,8.6C50.9,46.4,50.3,57.6,50.3,57.6z M69.6,64.7c7.5,0,7.2-4.8,7.2-4.8h7.9c0,12.8-15.4,12-15.4,12
			c-18.5,0-17.3-17.2-17.3-17.2s0-17.3,17.3-17.3C87.6,37.3,85,56.9,85,56.9H61.7C61.7,65.2,69.6,64.7,69.6,64.7z"/>
	</g>
</g>
</svg>
