<?xml version="1.0" encoding="utf-8"?>
<!-- Generator: Adobe Illustrator 24.2.1, SVG Export Plug-In . SVG Version: 6.00 Build 0)  -->
<svg version="1.1" id="Layer_1" xmlns="http://www.w3.org/2000/svg" xmlns:xlink="http://www.w3.org/1999/xlink" x="0px" y="0px"
	 viewBox="0 0 100 125" style="enable-background:new 0 0 100 125;" xml:space="preserve">
<style type="text/css">
	.st0{fill:#866E4B;}
</style>
<path class="st0" d="M50.1,0.4C22.6,0.4,0.4,22.6,0.4,50.1s22.2,49.5,49.7,49.5s49.5-22.2,49.5-49.7S77.5,0.4,50.1,0.4z M72.2,32.8
	L50.1,51.2L28,32.8H72.2z M74.8,64.9c0.1,1-0.7,2.1-1.8,2.1c-0.1,0-0.3,0-0.3,0H27.4c-1,0.1-2.1-0.6-2.3-1.7c0-0.1,0-0.1,0-0.3V35.9
	c0-0.1,0-0.1,0-0.4l5.1,4.1L48.7,55c0.7,0.7,2,0.7,2.7,0.1c0,0,0,0,0.1-0.1l22.6-18.9l0.7-0.6c0,0.3,0,0.4,0,0.6V64.9L74.8,64.9z"/>
</svg>
