<?xml version="1.0" encoding="utf-8"?>
<!-- Generator: Adobe Illustrator 24.2.1, SVG Export Plug-In . SVG Version: 6.00 Build 0)  -->
<svg version="1.1" id="Layer_1" xmlns="http://www.w3.org/2000/svg" xmlns:xlink="http://www.w3.org/1999/xlink" x="0px" y="0px"
	 viewBox="0 0 48 60" style="enable-background:new 0 0 48 60;" xml:space="preserve">
<style type="text/css">
	.st0{fill:#866E4B;}
</style>
<path class="st0" d="M24,31.4c4.1,0,7.4-3.3,7.4-7.4s-3.3-7.4-7.4-7.4s-7.4,3.3-7.4,7.4S19.9,31.4,24,31.4z M39.5,9.9
	c2.1,0,4.1-1.7,4.1-4.1c0-2.1-1.7-4.1-4.1-4.1c-2.1,0-4.1,1.7-4.1,4.1S37,9.9,39.5,9.9z M38.5,24c0,7.9-6.6,14.5-14.5,14.5
	S9.5,31.9,9.5,24c0-1.7,0.4-3.3,1-5h-7v19.8c0,3.3,3.1,6,6,6h27.9c3.3,0,6-3.1,6-6v-26H33.1C36.4,15.9,38.5,19.7,38.5,24z M24-25.6
	C-3.3-25.6-25.6-3.3-25.6,24S-3.5,73.6,24,73.6S73.6,51.3,73.6,24S51.3-25.6,24-25.6z M50.5,44.3c0,4.3-3.7,8.1-8.1,8.1H4.6
	c-4.3,0-8.1-3.7-8.1-8.1V6.8c0-4.3,3.7-8.1,8.1-8.1h37.8c4.3,0,8.1,3.7,8.1,8.1L50.5,44.3L50.5,44.3z"/>
</svg>
