<?xml version="1.0" encoding="utf-8"?>
<!-- Generator: Adobe Illustrator 24.2.1, SVG Export Plug-In . SVG Version: 6.00 Build 0)  -->
<svg version="1.1"
	 id="Capa_1" xmlns:cc="http://creativecommons.org/ns#" xmlns:dc="http://purl.org/dc/elements/1.1/" xmlns:inkscape="http://www.inkscape.org/namespaces/inkscape" xmlns:rdf="http://www.w3.org/1999/02/22-rdf-syntax-ns#" xmlns:sodipodi="http://sodipodi.sourceforge.net/DTD/sodipodi-0.dtd" xmlns:svg="http://www.w3.org/2000/svg"
	 xmlns="http://www.w3.org/2000/svg" xmlns:xlink="http://www.w3.org/1999/xlink" x="0px" y="0px" viewBox="0 0 100 125"
	 style="enable-background:new 0 0 100 125;" xml:space="preserve">
<style type="text/css">
	.st0{fill:#866E4B;}
	.st1{stroke:#000000;stroke-width:2;stroke-miterlimit:10;}
</style>
<path class="st0" d="M50.1,0.4C22.6,0.4,0.4,22.6,0.4,50.1s22.2,49.5,49.7,49.5s49.5-22.2,49.5-49.7S77.5,0.4,50.1,0.4z"/>
<g transform="translate(0,-952.36218)">
	<path class="st1" d="M27.8,964.6c-5.5,0-9.9,4.5-9.9,9.9c0,5.5,4.5,9.9,9.9,9.9s9.9-4.5,9.9-9.9C37.7,969.1,33.2,964.6,27.8,964.6z
		 M27.8,969.2c3,0,5.4,2.4,5.4,5.4s-2.4,5.4-5.4,5.4s-5.4-2.4-5.4-5.4S24.8,969.2,27.8,969.2z M67.7,984.4c-4.4,0-7.4,1.6-9.9,3.7
		c-0.1-1.1-1.2-2.1-2.3-2.1H43.2c-1.2,0-2.3,1.1-2.3,2.3v41.4c0,1.2,1.1,2.3,2.3,2.3h13c1.2,0,2.3-1.1,2.3-2.3v-23
		c0-1.8,0.6-3.5,1.4-4.6c0.8-1.1,1.7-1.6,2.5-1.6h1.5c0.8,0,1.7,0.5,2.5,1.6c0.8,1.1,1.4,2.8,1.4,4.6v23c0,1.2,1.1,2.3,2.3,2.3h13
		c1.2,0,2.3-1.1,2.3-2.3v-7.6c0-1.2-1.1-2.3-2.3-2.3s-2.3,1.1-2.3,2.3v5.4h-8.4v-20.6c0-2.7-0.8-5.3-2.2-7.2c-1.4-2-3.6-3.5-6.2-3.5
		h-1.5c-2.6,0-4.8,1.5-6.2,3.5s-2.2,4.6-2.2,7.2v8.4c-0.1,0-0.2,0-0.2,0c-1.2,0.1-2.3,1.2-2.2,2.4s1.2,2.3,2.4,2.2v1.5
		c-0.1,0-0.2,0-0.2,0c-1.2,0.1-2.3,1.2-2.2,2.4s1.2,2.3,2.4,2.2v1.5h-8.4v-36.8h7.6v3.1c0,1,0.7,1.9,1.5,2.2c0.8,0.3,2,0,2.6-0.7
		c2.6-3.2,5-6.1,10.4-6.1c5.4,0,8.3,1.4,10.2,3.6c1.9,2.2,2.8,5.7,2.8,10.2v11.5c0,1.2,1.1,2.3,2.3,2.3s2.3-1.1,2.3-2.3v-11.5
		c0-5.2-1-9.8-3.9-13.2C78.5,986.2,73.8,984.4,67.7,984.4z M21.4,986c-1.1,0.1-2.1,1.2-2.1,2.3v41.4c0,1.2,1.1,2.3,2.3,2.3h13
		c1.2,0,2.3-1.1,2.3-2.3v-41.4c0-1.2-1.1-2.3-2.3-2.3C30.3,986,25.8,986,21.4,986z M24,990.6h8.4v24.5c-0.1,0-0.2,0-0.2,0
		c-1.2,0.1-2.3,1.2-2.2,2.4c0.1,1.2,1.2,2.3,2.4,2.2v1.5c-0.1,0-0.2,0-0.2,0c-1.2,0.1-2.3,1.2-2.2,2.4c0.1,1.2,1.2,2.3,2.4,2.2v1.5
		H24V990.6z"/>
</g>
</svg>
