<?xml version="1.0" encoding="utf-8"?>
<!-- Generator: Adobe Illustrator 24.0.2, SVG Export Plug-In . SVG Version: 6.00 Build 0)  -->
<svg version="1.1" id="Capa_1" xmlns="http://www.w3.org/2000/svg" xmlns:xlink="http://www.w3.org/1999/xlink" x="0px" y="0px"
	 viewBox="0 0 43 47.5" style="enable-background:new 0 0 43 47.5;" xml:space="preserve">
<style type="text/css">
	.st0{fill:#FFFFFF;}
</style>
<g>
	<g>
		<path class="st0" d="M18,20.8h7c0.4,0,0.8-0.4,0.8-0.8c0-0.4-0.4-0.8-0.8-0.8h-7c-0.4,0-0.8,0.4-0.8,0.8
			C17.2,20.4,17.6,20.8,18,20.8z M25,22.2h-7c-0.4,0-0.8,0.4-0.8,0.8c0,0.4,0.4,0.8,0.8,0.8h7c0.4,0,0.8-0.4,0.8-0.8
			C25.8,22.6,25.4,22.2,25,22.2z M25,25.2h-7c-0.4,0-0.8,0.4-0.8,0.8c0,0.4,0.4,0.8,0.8,0.8h7c0.4,0,0.8-0.4,0.8-0.8
			C25.8,25.6,25.4,25.2,25,25.2z"/>
	</g>
</g>
</svg>
