<?xml version="1.0" encoding="utf-8"?>
<!-- Generator: Adobe Illustrator 24.2.1, SVG Export Plug-In . SVG Version: 6.00 Build 0)  -->
<svg version="1.1" id="Layer_1" xmlns="http://www.w3.org/2000/svg" xmlns:xlink="http://www.w3.org/1999/xlink" x="0px" y="0px"
	 viewBox="0 0 378.3 472.8" style="enable-background:new 0 0 378.3 472.8;" xml:space="preserve">
<style type="text/css">
	.st0{fill-rule:evenodd;clip-rule:evenodd;fill:#866E4B;}
</style>
<g>
	<path class="st0" d="M189.1,139.5c27.2,0,49.6,22.1,49.6,49.6s-22.1,49.6-49.6,49.6s-49.6-22.1-49.6-49.4S161.9,139.5,189.1,139.5
		L189.1,139.5z M164.2,164.9c4.2-5.4,4.9-3.7,10-1.6c1.6,0.7,4.2,11.4,4.9,13.5c0.7,2.1,0.5,4.4-1.2,6.1l-1.9,1.9
		c-0.9,0.9-0.9,2.6,0,3.5l14.2,14.2c0.9,0.9,2.6,0.9,3.5,0l1.9-1.9c1.6-1.6,4-2.1,6.1-1.2c2.1,0.7,12.8,3.3,13.3,4.9
		c2.3,5.1,3.7,5.8-1.6,10C195.4,228.5,149.8,183.1,164.2,164.9L164.2,164.9z"/>
</g>
</svg>
